<?xml version="1.0" encoding="utf-8"?>
<!-- Uploaded to: SVG Repo, www.svgrepo.com, Generator: SVG Repo Mixer Tools -->
<svg xmlns="http://www.w3.org/2000/svg" xmlns:xlink="http://www.w3.org/1999/xlink" version="1.1" id="microphonestudio"  viewBox="0 0 186.6276 238.0781" enable-background="new 0 0 186.6276 238.0781" xml:space="preserve" width="512" height="512">
<g>
	<rect x="83.7477" y="184" fill="#D0E8FF" width="12" height="20"/>
	<path fill="#5CB0FF" d="M89.7477,156c25.3652,0,46-20.6367,46-46.0039V54.0039c0-25.3672-20.6348-46.0039-46-46.0039   s-46,20.6367-46,46.0039v55.9922C43.7477,135.3633,64.3824,156,89.7477,156z M67.7477,44h44.1816c2.209,0,4,1.7891,4,4   s-1.791,4-4,4H67.7477c-2.209,0-4-1.7891-4-4S65.5387,44,67.7477,44z M67.7477,68h44.1816c2.209,0,4,1.7891,4,4s-1.791,4-4,4   H67.7477c-2.209,0-4-1.7891-4-4S65.5387,68,67.7477,68z M67.7477,92h44.1816c2.209,0,4,1.7891,4,4s-1.791,4-4,4H67.7477   c-2.209,0-4-1.7891-4-4S65.5387,92,67.7477,92z M67.7477,116h44.1816c2.209,0,4,1.7891,4,4s-1.791,4-4,4H67.7477   c-2.209,0-4-1.7891-4-4S65.5387,116,67.7477,116z"/>
	<path fill="#1C71DA" d="M89.7477,164c29.7754,0,54-24.2266,54-54.0039V54.0039c0-29.7773-24.2246-54.0039-54-54.0039   s-54,24.2266-54,54.0039v55.9922C35.7477,139.7734,59.9723,164,89.7477,164z M43.7477,54.0039C43.7477,28.6367,64.3824,8,89.7477,8   s46,20.6367,46,46.0039v55.9922c0,25.3672-20.6348,46.0039-46,46.0039s-46-20.6367-46-46.0039V54.0039z"/>
	<path fill="#1C71DA" d="M103.7477,181.6099c33.0195-6.5369,58-35.7019,58-70.6099c0-2.2109-1.791-4-4-4s-4,1.7891-4,4   c0,35.2891-28.7109,64-64,64s-64-28.7109-64-64c0-2.2109-1.791-4-4-4s-4,1.7891-4,4c0,34.908,24.9805,64.073,58,70.6099V208   c0,0.6753,0.2095,1.282,0.5046,1.8396l-21.4089,21.4105c-1.5625,1.5624-1.5625,4.0937,0,5.6562   c0.7812,0.7812,1.8047,1.1719,2.8281,1.1719s2.0469-0.3906,2.8281-1.1719L85.4039,212h8.6875l24.9043,24.9062   c0.7812,0.7812,1.8047,1.1719,2.8281,1.1719s2.0469-0.3906,2.8281-1.1719c1.5625-1.5625,1.5625-4.0938,0-5.6562l-21.4089-21.4105   c0.2952-0.5576,0.5046-1.1643,0.5046-1.8396V181.6099z M95.7477,204h-12v-20h12V204z"/>
	<path fill="#1C71DA" d="M67.7477,52h44.1816c2.209,0,4-1.7891,4-4s-1.791-4-4-4H67.7477c-2.209,0-4,1.7891-4,4   S65.5387,52,67.7477,52z"/>
	<path fill="#1C71DA" d="M67.7477,76h44.1816c2.209,0,4-1.7891,4-4s-1.791-4-4-4H67.7477c-2.209,0-4,1.7891-4,4   S65.5387,76,67.7477,76z"/>
	<path fill="#1C71DA" d="M67.7477,100h44.1816c2.209,0,4-1.7891,4-4s-1.791-4-4-4H67.7477c-2.209,0-4,1.7891-4,4   S65.5387,100,67.7477,100z"/>
	<path fill="#1C71DA" d="M67.7477,124h44.1816c2.209,0,4-1.7891,4-4s-1.791-4-4-4H67.7477c-2.209,0-4,1.7891-4,4   S65.5387,124,67.7477,124z"/>
</g>
<path fill="#FF5D5D" d="M4.0001,83.8223c-1.0239,0-2.0474-0.3906-2.8286-1.1719c-1.562-1.5615-1.562-4.0947,0-5.6562  l14.1421-14.1416c1.5635-1.5625,4.0957-1.5615,5.6572,0c1.562,1.5615,1.562,4.0947,0,5.6562L6.8287,82.6504  C6.0475,83.4316,5.0236,83.8223,4.0001,83.8223z"/>
<path fill="#FF5D5D" d="M18.1422,83.8223c-1.0239,0-2.0474-0.3906-2.8286-1.1719L1.1715,68.5088  c-1.562-1.5615-1.562-4.0947,0-5.6562c1.5625-1.5625,4.0947-1.5625,5.6572,0l14.1421,14.1416c1.562,1.5615,1.562,4.0947,0,5.6562  C20.1896,83.4316,19.1661,83.8223,18.1422,83.8223z"/>
<path fill="#00D40B" d="M22.0001,215.8223c-7.7197,0-14-6.2803-14-14s6.2803-14,14-14s14,6.2803,14,14  S29.7198,215.8223,22.0001,215.8223z M22.0001,195.8223c-3.3086,0-6,2.6914-6,6s2.6914,6,6,6s6-2.6914,6-6  S25.3087,195.8223,22.0001,195.8223z"/>
<path fill="#FFC504" d="M171.3136,46.4492c-1.0239,0-2.0474-0.3906-2.8286-1.1719l-11.3135-11.3135  c-1.562-1.5615-1.562-4.0947,0-5.6562l11.3135-11.3135c1.5625-1.5625,4.0952-1.5625,5.6567,0l11.314,11.3135  c0.7505,0.75,1.1719,1.7676,1.1719,2.8281s-0.4214,2.0781-1.1719,2.8281l-11.314,11.3135  C173.361,46.0586,172.337,46.4492,171.3136,46.4492z M165.6569,31.1357l5.6567,5.6562l5.6572-5.6562l-5.6572-5.6562  L165.6569,31.1357z"/>
</svg>